<?xml version="1.0" encoding="UTF-8"?>
<!DOCTYPE svg PUBLIC "-//W3C//DTD SVG 1.1//EN" "http://www.w3.org/Graphics/SVG/1.1/DTD/svg11.dtd">
<!-- Creator: CorelDRAW -->
<svg xmlns="http://www.w3.org/2000/svg" xml:space="preserve" width="512px" height="512px" version="1.1" shape-rendering="geometricPrecision" text-rendering="geometricPrecision" image-rendering="optimizeQuality" fill-rule="evenodd" clip-rule="evenodd"
viewBox="0 0 512 512"
 xmlns:xlink="http://www.w3.org/1999/xlink"
 xmlns:xodm="http://www.corel.com/coreldraw/odm/2003">
 <g id="Layer_x0020_1">
  <metadata id="CorelCorpID_0Corel-Layer"/>
  <rect fill="none" width="512" height="512"/>
  <path fill="black" fill-rule="nonzero" d="M70.52 102.52l5.37 12.66 5.39 -12.66 7.56 0 -9.37 18.69 0 10.47 -7.15 0 0 -10.47 -9.39 -18.69 7.59 0zm34 236.01l0 13.38 -30.33 0 0 -13.38 30.33 0zm-24.38 -58.8l0 72.18 -16.95 0 0 -72.18 16.95 0zm49.43 0l0 72.18 -16.91 0 0 -72.18 16.91 0zm62.65 0l0 72.18 -16.9 0 -18.09 -44.9 0 44.9 -16.95 0 0 -72.18 16.95 0 18.09 44.92 0 -44.92 16.9 0zm60.73 33.62l0 30.14c-1.13,1.08 -2.77,2.38 -4.96,3.85 -2.18,1.49 -4.92,2.8 -8.2,3.9 -3.29,1.11 -7.16,1.67 -11.63,1.67 -4.13,0 -7.85,-0.64 -11.15,-1.89 -3.31,-1.26 -6.12,-3.17 -8.46,-5.72 -2.32,-2.56 -4.11,-5.79 -5.38,-9.67 -1.25,-3.89 -1.88,-8.49 -1.88,-13.8l0 -11.95c0,-5.29 0.65,-9.9 1.91,-13.84 1.27,-3.92 3.07,-7.17 5.39,-9.71 2.3,-2.54 5.05,-4.45 8.22,-5.72 3.18,-1.29 6.7,-1.91 10.56,-1.91 5.78,0 10.54,0.96 14.24,2.93 3.73,1.94 6.52,4.73 8.36,8.39 1.85,3.65 2.83,8.07 2.93,13.26l-16.26 0c-0.14,-2.74 -0.53,-4.94 -1.19,-6.6 -0.65,-1.64 -1.6,-2.82 -2.82,-3.53 -1.24,-0.71 -2.78,-1.07 -4.67,-1.07 -1.52,0 -2.86,0.29 -4.04,0.9 -1.17,0.59 -2.15,1.57 -2.97,2.94 -0.81,1.37 -1.42,3.2 -1.84,5.49 -0.41,2.26 -0.61,5.05 -0.61,8.37l0 12.05c0,3.26 0.19,6.04 0.59,8.32 0.39,2.29 1,4.1 1.83,5.45 0.83,1.36 1.95,2.35 3.33,2.98 1.39,0.63 3.1,0.95 5.15,0.95 1.25,0 2.3,-0.17 3.13,-0.51 0.83,-0.32 1.52,-0.71 2.08,-1.13 0.56,-0.43 1.01,-0.73 1.39,-0.9l0 -11.69 -8.63 0 0 -11.95 25.58 0zm17.6 -33.62l13.74 0 11.33 50.22 11.36 -50.22 13.69 0 -19.44 72.18 -11.21 0 -19.47 -72.18zm-8.48 0l14.23 0 2.73 55.33 0 16.85 -16.96 0 0 -72.18zm52.84 0l14.29 0 0 72.18 -17.01 0 0 -16.85 2.72 -55.33zm52.34 15.18l-13.44 57 -18.24 0 22.27 -72.18 11.41 0 -2 15.18zm10.51 57l-13.42 -57 -2.23 -15.18 11.59 0 22.31 72.18 -18.25 0zm0.56 -26.92l0 13.44 -31.29 0 0 -13.44 31.29 0zm53.43 7.73c0,-1.11 -0.1,-2.13 -0.32,-3.04 -0.22,-0.91 -0.63,-1.76 -1.24,-2.56 -0.61,-0.79 -1.54,-1.59 -2.75,-2.4 -1.22,-0.81 -2.86,-1.66 -4.91,-2.55 -2.57,-1.05 -5.11,-2.25 -7.58,-3.59 -2.49,-1.34 -4.71,-2.91 -6.67,-4.72 -1.96,-1.8 -3.55,-3.91 -4.74,-6.35 -1.18,-2.42 -1.77,-5.26 -1.77,-8.49 0,-3.11 0.59,-5.91 1.81,-8.41 1.2,-2.49 2.86,-4.62 4.99,-6.38 2.13,-1.78 4.65,-3.13 7.56,-4.08 2.91,-0.93 6.09,-1.4 9.53,-1.4 4.55,0 8.58,0.91 12.06,2.74 3.49,1.84 6.21,4.43 8.19,7.78 1.97,3.37 2.95,7.31 2.95,11.88l-16.91 0c0,-1.81 -0.23,-3.42 -0.69,-4.8 -0.48,-1.39 -1.19,-2.49 -2.17,-3.29 -0.96,-0.78 -2.25,-1.18 -3.84,-1.18 -1.42,0 -2.6,0.34 -3.58,1 -0.99,0.66 -1.71,1.54 -2.2,2.64 -0.51,1.11 -0.75,2.33 -0.75,3.65 0,1.08 0.24,2.07 0.75,2.95 0.49,0.88 1.16,1.69 2.04,2.45 0.88,0.76 1.9,1.49 3.08,2.18 1.17,0.7 2.44,1.37 3.79,2.03 3.27,1.22 6.18,2.59 8.7,4.1 2.52,1.5 4.65,3.2 6.36,5.11 1.73,1.89 3.03,4.04 3.89,6.46 0.88,2.42 1.32,5.14 1.32,8.17 0,3.25 -0.52,6.13 -1.55,8.63 -1.05,2.52 -2.56,4.64 -4.54,6.38 -1.98,1.73 -4.38,3.05 -7.17,3.93 -2.79,0.89 -5.94,1.35 -9.44,1.35 -3.2,0 -6.35,-0.47 -9.45,-1.42 -3.08,-0.95 -5.87,-2.4 -8.37,-4.37 -2.49,-1.96 -4.48,-4.48 -5.97,-7.58 -1.49,-3.09 -2.24,-6.76 -2.24,-11.03l17.06 0c0,2.12 0.17,3.91 0.49,5.37 0.34,1.45 0.86,2.6 1.57,3.48 0.71,0.88 1.63,1.51 2.74,1.88 1.14,0.39 2.53,0.57 4.17,0.57 1.52,0 2.7,-0.32 3.55,-0.96 0.85,-0.64 1.42,-1.51 1.76,-2.57 0.32,-1.08 0.49,-2.27 0.49,-3.56zm-348.45 39.47l-11.43 37.02 -12.15 0 17.24 -46.88 7.69 0 -1.35 9.86zm9.46 37.02l-11.46 -37.02 -1.49 -9.86 7.8 0 17.33 46.88 -12.18 0zm-0.45 -17.49l0 8.73 -24.05 0 0 -8.73 24.05 0zm55.19 -29.39l0 46.88 -11.27 0 -16.58 -29.17 0 29.17 -11.31 0 0 -46.88 11.31 0 16.58 29.17 0 -29.17 11.27 0zm28.91 0l0 46.88 -11.3 0 0 -46.88 11.3 0zm14.1 0l0 8.72 -39.18 0 0 -8.72 39.18 0zm20.81 9.86l-11.43 37.02 -12.14 0 17.23 -46.88 7.69 0 -1.35 9.86zm9.46 37.02l-11.46 -37.02 -1.49 -9.86 7.8 0 17.33 46.88 -12.18 0zm-0.45 -17.49l0 8.73 -24.05 0 0 -8.73 24.05 0zm16.03 -29.39l18.46 0c3.6,0 6.73,0.54 9.39,1.61 2.67,1.08 4.73,2.66 6.17,4.76 1.45,2.11 2.17,4.7 2.17,7.79 0,2.7 -0.41,4.94 -1.25,6.74 -0.83,1.8 -2,3.29 -3.49,4.46 -1.5,1.17 -3.22,2.12 -5.2,2.88l-3.71 2.09 -15.48 0 -0.07 -8.73 11.47 0c1.44,0 2.62,-0.25 3.57,-0.77 0.94,-0.51 1.66,-1.25 2.14,-2.2 0.48,-0.96 0.73,-2.1 0.73,-3.43 0,-1.36 -0.26,-2.51 -0.75,-3.48 -0.48,-0.96 -1.21,-1.7 -2.17,-2.22 -0.95,-0.51 -2.13,-0.78 -3.52,-0.78l-7.15 0 0 38.16 -11.31 0 0 -46.88zm25.66 46.88l-10.36 -20.74 11.98 -0.06 10.5 20.32 0 0.48 -12.12 0zm56.51 -46.88l0 46.88 -11.27 0 -16.57 -29.17 0 29.17 -11.31 0 0 -46.88 11.31 0 16.57 29.17 0 -29.17 11.27 0zm32.59 0l11.3 0 0 30.63c0,3.64 -0.76,6.72 -2.29,9.25 -1.53,2.52 -3.66,4.43 -6.41,5.71 -2.74,1.29 -5.97,1.94 -9.69,1.94 -3.67,0 -6.89,-0.65 -9.67,-1.94 -2.78,-1.28 -4.94,-3.19 -6.51,-5.71 -1.56,-2.53 -2.33,-5.61 -2.33,-9.25l0 -30.63 11.33 0 0 30.63c0,1.92 0.28,3.49 0.84,4.71 0.56,1.21 1.37,2.1 2.45,2.65 1.07,0.56 2.36,0.85 3.89,0.85 1.55,0 2.85,-0.29 3.9,-0.85 1.05,-0.55 1.85,-1.44 2.38,-2.65 0.54,-1.22 0.81,-2.79 0.81,-4.71l0 -30.63zm42.52 34.42c0,-0.73 -0.1,-1.39 -0.32,-1.98 -0.21,-0.59 -0.6,-1.14 -1.19,-1.66 -0.58,-0.52 -1.41,-1.03 -2.49,-1.56 -1.09,-0.53 -2.51,-1.08 -4.27,-1.66 -2.06,-0.68 -4.05,-1.46 -5.95,-2.33 -1.91,-0.87 -3.63,-1.89 -5.12,-3.07 -1.51,-1.16 -2.69,-2.54 -3.57,-4.12 -0.9,-1.57 -1.33,-3.42 -1.33,-5.51 0,-2.03 0.45,-3.84 1.35,-5.47 0.9,-1.61 2.16,-3 3.79,-4.14 1.62,-1.15 3.52,-2.03 5.71,-2.65 2.19,-0.6 4.59,-0.91 7.18,-0.91 3.44,0 6.46,0.59 9.1,1.78 2.63,1.2 4.68,2.88 6.18,5.06 1.49,2.18 2.24,4.74 2.24,7.71l-11.24 0c0,-1.18 -0.25,-2.22 -0.73,-3.12 -0.48,-0.9 -1.2,-1.62 -2.17,-2.13 -0.96,-0.51 -2.18,-0.77 -3.63,-0.77 -1.42,0 -2.62,0.22 -3.59,0.65 -0.95,0.42 -1.69,1 -2.18,1.71 -0.5,0.73 -0.74,1.52 -0.74,2.37 0,0.71 0.2,1.35 0.59,1.92 0.4,0.57 0.97,1.1 1.71,1.59 0.75,0.49 1.65,0.97 2.7,1.42 1.07,0.45 2.27,0.89 3.6,1.32 2.49,0.79 4.7,1.68 6.64,2.66 1.95,0.97 3.59,2.07 4.93,3.31 1.34,1.24 2.36,2.63 3.06,4.2 0.7,1.57 1.05,3.34 1.05,5.31 0,2.11 -0.41,3.98 -1.23,5.61 -0.82,1.63 -1.98,3.01 -3.51,4.14 -1.53,1.12 -3.35,1.98 -5.47,2.55 -2.12,0.58 -4.5,0.88 -7.11,0.88 -2.41,0 -4.77,-0.31 -7.1,-0.93 -2.33,-0.61 -4.44,-1.56 -6.33,-2.83 -1.89,-1.28 -3.4,-2.91 -4.53,-4.92 -1.12,-2.01 -1.68,-4.4 -1.68,-7.17l11.33 0c0,1.37 0.18,2.54 0.55,3.48 0.36,0.95 0.9,1.7 1.6,2.27 0.71,0.57 1.59,0.98 2.61,1.22 1.03,0.25 2.22,0.37 3.55,0.37 1.43,0 2.59,-0.21 3.47,-0.62 0.88,-0.42 1.53,-0.98 1.94,-1.68 0.4,-0.7 0.6,-1.47 0.6,-2.3zm37 -24.56l-11.43 37.02 -12.14 0 17.23 -46.88 7.69 0 -1.35 9.86zm9.46 37.02l-11.46 -37.02 -1.48 -9.86 7.79 0 17.33 46.88 -12.18 0zm-0.45 -17.49l0 8.73 -24.04 0 0 -8.73 24.04 0zm-340.28 -121.76l-23.81 0 0.19 -24.08 23.62 0c4.47,0 8.09,-0.97 10.93,-2.95 2.83,-1.95 4.93,-5.21 6.3,-9.74 1.37,-4.57 2.04,-10.66 2.04,-18.27l0 -19.87c0,-5.7 -0.37,-10.54 -1.13,-14.46 -0.73,-3.9 -1.89,-7.06 -3.41,-9.44 -1.55,-2.37 -3.59,-4.11 -6.15,-5.2 -2.56,-1.13 -5.6,-1.68 -9.1,-1.68l-23.74 0 0 -24.16 23.74 0c7.61,0 14.52,1.24 20.73,3.71 6.21,2.46 11.57,6.09 16.1,10.86 4.51,4.81 7.98,10.6 10.41,17.36 2.47,6.78 3.68,14.51 3.68,23.19l0 19.69c0,8.65 -1.21,16.35 -3.68,23.17 -2.43,6.79 -5.87,12.57 -10.38,17.32 -4.47,4.78 -9.8,8.37 -15.95,10.83 -6.15,2.47 -12.97,3.72 -20.39,3.72zm-5.97 -129.85l0 129.85 -30.5 0 0 -129.85 30.5 0zm119.23 27.3l-24.17 102.55 -32.81 0 40.06 -129.85 20.51 0 -3.59 27.3zm18.9 102.55l-24.13 -102.55 -4.02 -27.3 20.85 0 40.15 129.85 -32.85 0zm1.01 -48.43l0 24.17 -56.28 0 0 -24.17 56.28 0zm53.11 -81.42l16.68 56.37 16.78 -56.37 32.72 0 -33.88 83.21 0 46.64 -31.05 0 0 -46.64 -33.97 -83.21 32.72 0zm111.65 27.3l-24.17 102.55 -32.81 0 40.06 -129.85 20.51 0 -3.59 27.3zm18.91 102.55l-24.14 -102.55 -4.02 -27.3 20.85 0 40.15 129.85 -32.84 0zm1 -48.43l0 24.17 -56.28 0 0 -24.17 56.28 0zm-304.37 -112.88l-7.11 23.03 -7.55 0 10.71 -29.16 4.79 0 -0.84 6.13zm5.88 23.03l-7.13 -23.03 -0.92 -6.13 4.84 0 10.78 29.16 -7.57 0zm-0.28 -10.88l0 5.43 -14.95 0 0 -5.43 14.95 0zm24.75 -18.28l5.37 12.66 5.38 -12.66 7.57 0 -9.37 18.69 0 10.47 -7.15 0 0 -10.47 -9.39 -18.69 7.59 0zm42.31 6.13l-7.1 23.03 -7.56 0 10.72 -29.16 4.78 0 -0.84 6.13zm5.89 23.03l-7.13 -23.03 -0.92 -6.13 4.84 0 10.78 29.16 -7.57 0zm-0.28 -10.88l0 5.43 -14.96 0 0 -5.43 14.96 0zm37.48 3.13c0,-0.46 -0.06,-0.87 -0.19,-1.23 -0.13,-0.37 -0.38,-0.72 -0.74,-1.04 -0.36,-0.32 -0.88,-0.64 -1.55,-0.97 -0.68,-0.33 -1.56,-0.67 -2.66,-1.03 -1.28,-0.42 -2.52,-0.91 -3.7,-1.45 -1.19,-0.54 -2.26,-1.17 -3.18,-1.91 -0.94,-0.72 -1.68,-1.57 -2.23,-2.56 -0.55,-0.98 -0.82,-2.12 -0.82,-3.43 0,-1.26 0.28,-2.38 0.84,-3.4 0.56,-1 1.34,-1.86 2.36,-2.57 1,-0.72 2.18,-1.27 3.55,-1.65 1.36,-0.38 2.85,-0.57 4.46,-0.57 2.14,0 4.02,0.37 5.66,1.11 1.63,0.75 2.91,1.79 3.84,3.14 0.93,1.36 1.4,2.96 1.4,4.8l-7 0c0,-0.73 -0.15,-1.38 -0.45,-1.94 -0.3,-0.56 -0.74,-1 -1.34,-1.32 -0.6,-0.32 -1.36,-0.48 -2.26,-0.48 -0.89,0 -1.63,0.13 -2.23,0.4 -0.6,0.27 -1.05,0.62 -1.36,1.07 -0.31,0.45 -0.46,0.94 -0.46,1.47 0,0.44 0.12,0.84 0.37,1.19 0.24,0.36 0.6,0.69 1.06,0.99 0.46,0.31 1.02,0.6 1.68,0.88 0.66,0.28 1.41,0.56 2.23,0.82 1.56,0.5 2.93,1.05 4.14,1.66 1.21,0.61 2.23,1.29 3.06,2.06 0.84,0.77 1.47,1.64 1.91,2.61 0.43,0.98 0.65,2.08 0.65,3.3 0,1.32 -0.26,2.48 -0.77,3.49 -0.5,1.02 -1.23,1.87 -2.18,2.58 -0.95,0.69 -2.08,1.23 -3.4,1.58 -1.32,0.36 -2.8,0.55 -4.42,0.55 -1.5,0 -2.97,-0.19 -4.42,-0.58 -1.45,-0.38 -2.76,-0.97 -3.94,-1.76 -1.17,-0.79 -2.11,-1.81 -2.81,-3.06 -0.7,-1.25 -1.05,-2.73 -1.05,-4.46l7.05 0c0,0.86 0.11,1.58 0.34,2.17 0.23,0.59 0.56,1.05 1,1.41 0.44,0.35 0.98,0.61 1.62,0.76 0.64,0.15 1.38,0.23 2.21,0.23 0.88,0 1.61,-0.13 2.16,-0.39 0.54,-0.26 0.95,-0.61 1.2,-1.04 0.25,-0.44 0.37,-0.92 0.37,-1.43zm35.52 -15.28l-7.11 23.03 -7.55 0 10.71 -29.16 4.79 0 -0.84 6.13zm5.88 23.03l-7.13 -23.03 -0.92 -6.13 4.84 0 10.78 29.16 -7.57 0zm-0.28 -10.88l0 5.43 -14.95 0 0 -5.43 14.95 0zm46.82 -18.28l0 29.16 -7.01 0 -10.31 -18.14 0 18.14 -7.03 0 0 -29.16 7.03 0 10.31 18.15 0 -18.15 7.01 0z"/>
 </g>
</svg>
